<svg width="36" height="37" viewBox="0 0 36 37" fill="none" xmlns="http://www.w3.org/2000/svg">
<path d="M31.5 27.5V12.5C31.5 10.8431 30.1569 9.5 28.5 9.5H7.5C5.84314 9.5 4.5 10.8431 4.5 12.5V27.5C4.5 29.1569 5.84314 30.5 7.5 30.5H28.5C30.1569 30.5 31.5 29.1569 31.5 27.5Z" stroke="#3D3D3D" stroke-width="2" stroke-linecap="round"/>
<path d="M18.0001 20.75C15.7288 20.75 13.7523 22.0119 12.7335 23.8731C11.9379 25.3265 13.3432 26.75 15.0001 26.75H21.0001C22.657 26.75 24.0622 25.3265 23.2667 23.8731C22.2479 22.0119 20.2714 20.75 18.0001 20.75Z" stroke="#3D3D3D" stroke-width="2" stroke-linecap="round"/>
<path d="M20.25 16.25C20.25 17.4926 19.2426 18.5 18 18.5C16.7574 18.5 15.75 17.4926 15.75 16.25C15.75 15.0074 16.7574 14 18 14C19.2426 14 20.25 15.0074 20.25 16.25Z" stroke="#3D3D3D" stroke-width="2" stroke-linecap="round"/>
<path d="M19.5 9.5V6.5C19.5 5.67158 18.8284 5 18 5C17.1716 5 16.5 5.67158 16.5 6.5V9.5H19.5Z" stroke="#3D3D3D" stroke-width="2" stroke-linecap="round"/>
</svg>
