<svg width="36" height="37" viewBox="0 0 36 37" fill="none" xmlns="http://www.w3.org/2000/svg">
<path d="M23.9992 25.25H29.2492C30.9061 25.25 32.3224 23.8268 31.5415 22.3655C30.2575 19.9629 27.3636 18.5 23.9992 18.5C22.353 18.5 20.8239 18.8338 19.5415 19.4546M4.45702 26.1155C5.74099 23.7129 8.63496 22.25 11.9993 22.25C15.3636 22.25 18.2575 23.7129 19.5415 26.1155C20.3224 27.5768 18.9061 29 17.2492 29H6.74928C5.09242 29 3.67611 27.5768 4.45702 26.1155ZM15.7492 14C15.7492 16.071 14.0703 17.75 11.9993 17.75C9.92821 17.75 8.24928 16.071 8.24928 14C8.24928 11.9289 9.92821 10.25 11.9993 10.25C14.0703 10.25 15.7492 11.9289 15.7492 14ZM27.7492 10.25C27.7492 12.3211 26.0703 14 23.9992 14C21.9282 14 20.2492 12.3211 20.2492 10.25C20.2492 8.17894 21.9282 6.5 23.9992 6.5C26.0703 6.5 27.7492 8.17894 27.7492 10.25Z" stroke="white" stroke-width="2" stroke-linecap="round"/>
</svg>
