<svg width="36" height="37" viewBox="0 0 36 37" fill="none" xmlns="http://www.w3.org/2000/svg">
<path d="M20.25 6.49995C19.2346 6.47922 19.2878 6.49989 18 6.49989C12.3431 6.49989 9.51472 6.49989 7.75735 8.25726C6 10.0146 6 12.843 6 18.5C6 24.1568 6 26.9852 7.75735 28.7426C9.51472 30.5 12.3431 30.5 18 30.5C23.6568 30.5 26.4853 30.5 28.2426 28.7426C30 26.9852 30 24.1568 30 18.5C30 17.2037 30.0212 17.2703 30 16.25" stroke="white" stroke-width="2" stroke-linecap="round"/>
<path d="M24.75 16.25H21.75C20.9216 16.25 20.25 15.5784 20.25 14.75V11.75M12.75 25.25H14.25C15.0784 25.25 15.75 24.5784 15.75 23.75V22.25C15.75 21.4216 15.0784 20.75 14.25 20.75H12.75C11.9216 20.75 11.25 21.4216 11.25 22.25V23.75C11.25 24.5784 11.9216 25.25 12.75 25.25ZM21.75 25.25H23.25C24.0784 25.25 24.75 24.5784 24.75 23.75V22.25C24.75 21.4216 24.0784 20.75 23.25 20.75H21.75C20.9216 20.75 20.25 21.4216 20.25 22.25V23.75C20.25 24.5784 20.9216 25.25 21.75 25.25ZM12.75 16.25H14.25C15.0784 16.25 15.75 15.5784 15.75 14.75V13.25C15.75 12.4216 15.0784 11.75 14.25 11.75H12.75C11.9216 11.75 11.25 12.4216 11.25 13.25V14.75C11.25 15.5784 11.9216 16.25 12.75 16.25ZM31.5 8.75C31.5 10.8211 29.821 12.5 27.75 12.5C25.679 12.5 24 10.8211 24 8.75C24 6.67893 25.679 5 27.75 5C29.821 5 31.5 6.67893 31.5 8.75Z" stroke="white" stroke-width="2" stroke-linecap="round"/>
</svg>
