<svg width="36" height="37" viewBox="0 0 36 37" fill="none" xmlns="http://www.w3.org/2000/svg">
<path d="M29.6502 10.5023C29.3559 10.0256 28.8726 9.67649 28.3063 9.53412C27.7387 9.39174 27.1354 9.46663 26.6275 9.74189C25.7835 10.1985 24.7659 10.198 23.9224 9.74052L23.0482 9.26649C22.257 8.83739 21.7642 8.0095 21.7642 7.10938C21.7642 5.96188 20.7765 5 19.555 5H16.4448C15.2233 5 14.2356 5.96188 14.2356 7.10938C14.2356 8.00956 13.7429 8.83754 12.9517 9.26696L12.0787 9.74086C11.2351 10.1987 10.2173 10.1991 9.37338 9.74189C8.86548 9.46663 8.26092 9.39173 7.69347 9.53412C7.12711 9.6765 6.64395 10.0256 6.34951 10.5023L4.79658 13.0293C4.5033 13.5061 4.4235 14.0735 4.57521 14.605C4.7269 15.1377 5.09772 15.5912 5.60563 15.8664C6.43663 16.3175 6.95424 17.1872 6.95452 18.1327L6.95473 18.8673C6.95502 19.8128 6.43768 20.6825 5.60676 21.1336C5.09884 21.4099 4.72689 21.8624 4.57521 22.3938C4.42351 22.9265 4.50328 23.494 4.79658 23.9707L6.35176 26.4977C6.64503 26.9744 7.12822 27.3235 7.69459 27.466C8.26207 27.6083 8.86548 27.5334 9.3745 27.258C10.2185 26.8014 11.236 26.8021 12.0796 27.2596L12.9506 27.7319C13.7424 28.1614 14.2355 28.9898 14.2355 29.8907C14.2355 31.0382 15.2232 32 16.4448 32H19.5541C20.7766 32 21.7633 31.0382 21.7633 29.8907C21.7639 28.9898 22.2576 28.1615 23.0494 27.732L23.9214 27.2594C24.765 26.8019 25.7826 26.8014 26.6266 27.258C27.1356 27.5333 27.739 27.6083 28.3054 27.466C28.8729 27.3235 29.356 26.9744 29.6493 26.4977L31.2034 23.9707C31.4967 23.494 31.5765 22.9265 31.4248 22.3949C31.273 21.8624 30.9022 21.4088 30.3943 21.1336C29.5633 20.6825 29.046 19.8128 29.046 18.8673V18.1327C29.046 17.1872 29.5633 16.3175 30.3943 15.8664C30.9022 15.5901 31.273 15.1376 31.4248 14.6061C31.5765 14.0734 31.4967 13.506 31.2034 13.0293L29.6502 10.5023Z" stroke="#3D3D3D" stroke-width="2" stroke-linecap="round"/>
<path d="M22.5 18.5C22.5 20.9854 20.4854 23 18 23C15.5146 23 13.5 20.9854 13.5 18.5C13.5 16.0146 15.5146 14 18 14C20.4854 14 22.5 16.0146 22.5 18.5Z" stroke="#3D3D3D" stroke-width="2" stroke-linecap="round"/>
</svg>
