<svg width="36" height="37" viewBox="0 0 36 37" fill="none" xmlns="http://www.w3.org/2000/svg">
<path d="M4.5 15.5C4.5 13.8431 5.84314 12.5 7.5 12.5H9.25C10.4611 12.5 11.5534 11.7718 12.0192 10.6538L12.3558 9.84616C12.8216 8.72822 13.9139 8 15.1249 8H20.8751C22.0862 8 23.1785 8.72822 23.6442 9.84616L23.9808 10.6538C24.4465 11.7718 25.5388 12.5 26.7499 12.5H28.5C30.1569 12.5 31.5 13.8431 31.5 15.5V26C31.5 27.6569 30.1569 29 28.5 29H7.5C5.84314 29 4.5 27.6569 4.5 26V15.5Z" stroke="white" stroke-width="2" stroke-linecap="round"/>
<path d="M22.5 20C22.5 22.4854 20.4854 24.5 18 24.5C15.5146 24.5 13.5 22.4854 13.5 20C13.5 17.5146 15.5146 15.5 18 15.5C20.4854 15.5 22.5 17.5146 22.5 20Z" stroke="white" stroke-width="2" stroke-linecap="round"/>
</svg>
