<svg width="36" height="37" viewBox="0 0 36 37" fill="none" xmlns="http://www.w3.org/2000/svg">
<path d="M27 15.5H21C19.3431 15.5 18 14.1569 18 12.5V6.5M12 23V26.75C12 27.1642 12.3358 27.5 12.75 27.5H18M12 23V19.25C12 18.8358 12.3358 18.5 12.75 18.5H18M12 23H18M18 27.5H23.25C23.6642 27.5 24 27.1642 24 26.75V23M18 27.5V23M18 18.5H23.25C23.6642 18.5 24 18.8358 24 19.25V23M18 18.5V23M18 23H24M27 15.2426V27.5C27 29.1569 25.6569 30.5 24 30.5H12C10.3431 30.5 9 29.1569 9 27.5V9.5C9 7.84314 10.3431 6.5 12 6.5H18.2574C19.053 6.5 19.8161 6.81607 20.3787 7.37869L26.1213 13.1213C26.6839 13.6839 27 14.447 27 15.2426Z" stroke="white" stroke-width="2" stroke-linecap="round"/>
</svg>
